<svg width="223" height="19" viewBox="0 0 223 19" fill="none" xmlns="http://www.w3.org/2000/svg">
<path d="M0.640137 15V1.04002H6.92014C7.56014 1.04002 8.13347 1.14668 8.64014 1.36002C9.16014 1.56002 9.60014 1.85335 9.96014 2.24002C10.3201 2.61335 10.5935 3.06668 10.7801 3.60002C10.9668 4.13335 11.0601 4.72002 11.0601 5.36002C11.0601 6.01335 10.9668 6.60668 10.7801 7.14002C10.5935 7.66002 10.3201 8.11335 9.96014 8.50002C9.60014 8.87335 9.16014 9.16669 8.64014 9.38002C8.13347 9.58002 7.56014 9.68002 6.92014 9.68002H3.28014V15H0.640137ZM3.28014 7.40002H6.68014C7.1868 7.40002 7.5868 7.26668 7.88014 7.00002C8.17347 6.72002 8.32014 6.32668 8.32014 5.82002V4.90002C8.32014 4.39335 8.17347 4.00668 7.88014 3.74002C7.5868 3.47335 7.1868 3.34002 6.68014 3.34002H3.28014V7.40002Z" fill="#30333D"/>
<path d="M13.2926 0.200018H15.8526V6.30002H15.9526C16.166 5.74002 16.4993 5.27335 16.9526 4.90002C17.4193 4.51335 18.0593 4.32002 18.8726 4.32002C19.9526 4.32002 20.7793 4.67335 21.3526 5.38002C21.926 6.08668 22.2126 7.09335 22.2126 8.40002V15H19.6526V8.66002C19.6526 7.91335 19.5193 7.35335 19.2526 6.98002C18.986 6.60668 18.546 6.42002 17.9326 6.42002C17.666 6.42002 17.406 6.46002 17.1526 6.54002C16.9126 6.60668 16.6926 6.71335 16.4926 6.86002C16.306 6.99335 16.1526 7.16668 16.0326 7.38002C15.9126 7.58002 15.8526 7.82002 15.8526 8.10002V15H13.2926V0.200018Z" fill="#30333D"/>
<path d="M31.2942 4.56002H33.6942L29.4942 16.86C29.3609 17.2334 29.2075 17.5534 29.0342 17.82C28.8742 18.1 28.6809 18.3267 28.4542 18.5C28.2275 18.6734 27.9542 18.8 27.6342 18.88C27.3142 18.96 26.9409 19 26.5142 19H24.9742V16.96H26.8542L27.3342 15.5L23.5942 4.56002H26.1342L27.9542 10.08L28.6342 12.72H28.7542L29.4742 10.08L31.2942 4.56002Z" fill="#30333D"/>
<path d="M38.6462 15.24C37.6462 15.24 36.8062 15.0734 36.1262 14.74C35.4462 14.3934 34.8462 13.92 34.3262 13.32L35.8862 11.8C36.2729 12.24 36.6929 12.5867 37.1462 12.84C37.6129 13.0934 38.1462 13.22 38.7462 13.22C39.3596 13.22 39.7996 13.1134 40.0662 12.9C40.3462 12.6867 40.4862 12.3934 40.4862 12.02C40.4862 11.7134 40.3862 11.4734 40.1862 11.3C39.9996 11.1134 39.6729 10.9867 39.2062 10.92L38.1662 10.78C37.0329 10.6334 36.1662 10.3134 35.5662 9.82002C34.9796 9.31335 34.6862 8.58002 34.6862 7.62002C34.6862 7.11335 34.7796 6.66002 34.9662 6.26002C35.1529 5.84668 35.4196 5.50002 35.7662 5.22002C36.1129 4.92668 36.5262 4.70668 37.0062 4.56002C37.4996 4.40002 38.0462 4.32002 38.6462 4.32002C39.1529 4.32002 39.5996 4.36002 39.9862 4.44002C40.3862 4.50668 40.7462 4.61335 41.0662 4.76002C41.3862 4.89335 41.6796 5.06668 41.9462 5.28002C42.2129 5.48002 42.4729 5.70668 42.7262 5.96002L41.2262 7.46002C40.9196 7.14002 40.5529 6.87335 40.1262 6.66002C39.6996 6.44668 39.2329 6.34002 38.7262 6.34002C38.1662 6.34002 37.7596 6.44002 37.5062 6.64002C37.2662 6.84002 37.1462 7.10002 37.1462 7.42002C37.1462 7.76668 37.2462 8.03335 37.4462 8.22002C37.6596 8.39335 38.0129 8.52002 38.5062 8.60002L39.5662 8.74002C41.8196 9.06002 42.9462 10.0867 42.9462 11.82C42.9462 12.3267 42.8396 12.7934 42.6262 13.22C42.4262 13.6334 42.1396 13.9934 41.7662 14.3C41.3929 14.5934 40.9396 14.8267 40.4062 15C39.8862 15.16 39.2996 15.24 38.6462 15.24Z" fill="#30333D"/>
<path d="M46.4867 3.04002C45.9534 3.04002 45.5667 2.92002 45.3267 2.68002C45.1 2.44002 44.9867 2.13335 44.9867 1.76002V1.36002C44.9867 0.986684 45.1 0.680017 45.3267 0.440017C45.5667 0.200017 45.9534 0.0800171 46.4867 0.0800171C47.0067 0.0800171 47.3867 0.200017 47.6267 0.440017C47.8667 0.680017 47.9867 0.986684 47.9867 1.36002V1.76002C47.9867 2.13335 47.8667 2.44002 47.6267 2.68002C47.3867 2.92002 47.0067 3.04002 46.4867 3.04002ZM45.2067 4.56002H47.7667V15H45.2067V4.56002Z" fill="#30333D"/>
<path d="M54.854 15.24C54.0807 15.24 53.394 15.1134 52.794 14.86C52.194 14.6067 51.6874 14.24 51.274 13.76C50.874 13.28 50.5674 12.7067 50.354 12.04C50.1407 11.36 50.034 10.6 50.034 9.76002C50.034 8.92002 50.1407 8.16668 50.354 7.50002C50.5674 6.83335 50.874 6.26668 51.274 5.80002C51.6874 5.32002 52.194 4.95335 52.794 4.70002C53.394 4.44668 54.0807 4.32002 54.854 4.32002C55.9074 4.32002 56.774 4.55335 57.454 5.02002C58.1474 5.48668 58.6474 6.13335 58.954 6.96002L56.854 7.90002C56.734 7.46002 56.5074 7.10002 56.174 6.82002C55.854 6.52668 55.414 6.38002 54.854 6.38002C54.134 6.38002 53.594 6.60668 53.234 7.06002C52.8874 7.51335 52.714 8.10668 52.714 8.84002V10.74C52.714 11.4734 52.8874 12.0667 53.234 12.52C53.594 12.96 54.134 13.18 54.854 13.18C55.4674 13.18 55.9407 13.0267 56.274 12.72C56.6074 12.4 56.8674 12.0067 57.054 11.54L59.014 12.48C58.6674 13.4 58.1407 14.0934 57.434 14.56C56.7274 15.0134 55.8674 15.24 54.854 15.24Z" fill="#30333D"/>
<path d="M68.668 15C68.108 15 67.6613 14.84 67.3279 14.52C67.0079 14.1867 66.808 13.7467 66.728 13.2H66.6079C66.4346 13.88 66.0813 14.3934 65.548 14.74C65.0146 15.0734 64.3546 15.24 63.568 15.24C62.5013 15.24 61.6813 14.96 61.1079 14.4C60.5346 13.84 60.2479 13.0934 60.2479 12.16C60.2479 11.08 60.6346 10.28 61.4079 9.76002C62.1813 9.22668 63.2813 8.96002 64.7079 8.96002H66.4879V8.20002C66.4879 7.61335 66.3346 7.16002 66.0279 6.84002C65.7213 6.52002 65.228 6.36002 64.548 6.36002C63.948 6.36002 63.4613 6.49335 63.0879 6.76002C62.7279 7.01335 62.4213 7.32002 62.1679 7.68002L60.6479 6.32002C61.0346 5.72002 61.548 5.24002 62.188 4.88002C62.8279 4.50668 63.6746 4.32002 64.728 4.32002C66.1413 4.32002 67.2146 4.64002 67.948 5.28002C68.6813 5.92002 69.048 6.84002 69.048 8.04002V12.96H70.088V15H68.668ZM64.4279 13.38C65.0013 13.38 65.4879 13.2534 65.8879 13C66.2879 12.7467 66.4879 12.3734 66.4879 11.88V10.5H64.8479C63.5146 10.5 62.8479 10.9267 62.8479 11.78V12.12C62.8479 12.5467 62.9813 12.8667 63.2479 13.08C63.5279 13.28 63.9213 13.38 64.4279 13.38Z" fill="#30333D"/>
<path d="M74.7198 15C73.8398 15 73.1932 14.78 72.7798 14.34C72.3665 13.9 72.1598 13.28 72.1598 12.48V0.200018H74.7198V12.96H76.0998V15H74.7198Z" fill="#30333D"/>
<path d="M88.4053 3.38002V15H85.7653V3.38002H81.8053V1.04002H92.3653V3.38002H88.4053Z" fill="#30333D"/>
<path d="M93.4684 15V4.56002H96.0284V6.72002H96.1284C96.1951 6.44002 96.2951 6.17335 96.4284 5.92002C96.5751 5.65335 96.7617 5.42002 96.9884 5.22002C97.2151 5.02002 97.4818 4.86002 97.7884 4.74002C98.1084 4.62002 98.4751 4.56002 98.8884 4.56002H99.4484V6.98002H98.6484C97.7817 6.98002 97.1284 7.10668 96.6884 7.36002C96.2484 7.61335 96.0284 8.02668 96.0284 8.60002V15H93.4684Z" fill="#30333D"/>
<path d="M108.785 15C108.225 15 107.778 14.84 107.445 14.52C107.125 14.1867 106.925 13.7467 106.845 13.2H106.725C106.552 13.88 106.198 14.3934 105.665 14.74C105.132 15.0734 104.472 15.24 103.685 15.24C102.618 15.24 101.798 14.96 101.225 14.4C100.652 13.84 100.365 13.0934 100.365 12.16C100.365 11.08 100.752 10.28 101.525 9.76002C102.298 9.22668 103.398 8.96002 104.825 8.96002H106.605V8.20002C106.605 7.61335 106.452 7.16002 106.145 6.84002C105.838 6.52002 105.345 6.36002 104.665 6.36002C104.065 6.36002 103.578 6.49335 103.205 6.76002C102.845 7.01335 102.538 7.32002 102.285 7.68002L100.765 6.32002C101.152 5.72002 101.665 5.24002 102.305 4.88002C102.945 4.50668 103.792 4.32002 104.845 4.32002C106.258 4.32002 107.332 4.64002 108.065 5.28002C108.798 5.92002 109.165 6.84002 109.165 8.04002V12.96H110.205V15H108.785ZM104.545 13.38C105.118 13.38 105.605 13.2534 106.005 13C106.405 12.7467 106.605 12.3734 106.605 11.88V10.5H104.965C103.632 10.5 102.965 10.9267 102.965 11.78V12.12C102.965 12.5467 103.098 12.8667 103.365 13.08C103.645 13.28 104.038 13.38 104.545 13.38Z" fill="#30333D"/>
<path d="M112.277 15V4.56002H114.837V6.30002H114.937C115.15 5.74002 115.484 5.27335 115.937 4.90002C116.404 4.51335 117.044 4.32002 117.857 4.32002C118.937 4.32002 119.764 4.67335 120.337 5.38002C120.91 6.08668 121.197 7.09335 121.197 8.40002V15H118.637V8.66002C118.637 7.91335 118.504 7.35335 118.237 6.98002C117.97 6.60668 117.53 6.42002 116.917 6.42002C116.65 6.42002 116.39 6.46002 116.137 6.54002C115.897 6.60668 115.677 6.71335 115.477 6.86002C115.29 6.99335 115.137 7.16668 115.017 7.38002C114.897 7.58002 114.837 7.82002 114.837 8.10002V15H112.277Z" fill="#30333D"/>
<path d="M127.455 15.24C126.455 15.24 125.615 15.0734 124.935 14.74C124.255 14.3934 123.655 13.92 123.135 13.32L124.695 11.8C125.081 12.24 125.501 12.5867 125.955 12.84C126.421 13.0934 126.955 13.22 127.555 13.22C128.168 13.22 128.608 13.1134 128.875 12.9C129.155 12.6867 129.295 12.3934 129.295 12.02C129.295 11.7134 129.195 11.4734 128.995 11.3C128.808 11.1134 128.481 10.9867 128.015 10.92L126.975 10.78C125.841 10.6334 124.975 10.3134 124.375 9.82002C123.788 9.31335 123.495 8.58002 123.495 7.62002C123.495 7.11335 123.588 6.66002 123.775 6.26002C123.961 5.84668 124.228 5.50002 124.575 5.22002C124.921 4.92668 125.335 4.70668 125.815 4.56002C126.308 4.40002 126.855 4.32002 127.455 4.32002C127.961 4.32002 128.408 4.36002 128.795 4.44002C129.195 4.50668 129.555 4.61335 129.875 4.76002C130.195 4.89335 130.488 5.06668 130.755 5.28002C131.021 5.48002 131.281 5.70668 131.535 5.96002L130.035 7.46002C129.728 7.14002 129.361 6.87335 128.935 6.66002C128.508 6.44668 128.041 6.34002 127.535 6.34002C126.975 6.34002 126.568 6.44002 126.315 6.64002C126.075 6.84002 125.955 7.10002 125.955 7.42002C125.955 7.76668 126.055 8.03335 126.255 8.22002C126.468 8.39335 126.821 8.52002 127.315 8.60002L128.375 8.74002C130.628 9.06002 131.755 10.0867 131.755 11.82C131.755 12.3267 131.648 12.7934 131.435 13.22C131.235 13.6334 130.948 13.9934 130.575 14.3C130.201 14.5934 129.748 14.8267 129.215 15C128.695 15.16 128.108 15.24 127.455 15.24Z" fill="#30333D"/>
<path d="M134.457 6.58002H132.917V4.56002H134.457V3.06002C134.457 2.14002 134.697 1.43335 135.177 0.940018C135.671 0.446685 136.391 0.200018 137.337 0.200018H139.157V2.24002H137.017V4.56002H139.157V6.58002H137.017V15H134.457V6.58002Z" fill="#30333D"/>
<path d="M144.991 15.24C144.245 15.24 143.571 15.1134 142.971 14.86C142.385 14.6067 141.878 14.24 141.451 13.76C141.038 13.28 140.718 12.7067 140.491 12.04C140.265 11.36 140.151 10.6 140.151 9.76002C140.151 8.92002 140.265 8.16668 140.491 7.50002C140.718 6.83335 141.038 6.26668 141.451 5.80002C141.878 5.32002 142.385 4.95335 142.971 4.70002C143.571 4.44668 144.245 4.32002 144.991 4.32002C145.738 4.32002 146.411 4.44668 147.011 4.70002C147.611 4.95335 148.118 5.32002 148.531 5.80002C148.958 6.26668 149.285 6.83335 149.511 7.50002C149.738 8.16668 149.851 8.92002 149.851 9.76002C149.851 10.6 149.738 11.36 149.511 12.04C149.285 12.7067 148.958 13.28 148.531 13.76C148.118 14.24 147.611 14.6067 147.011 14.86C146.411 15.1134 145.738 15.24 144.991 15.24ZM144.991 13.18C145.671 13.18 146.205 12.9734 146.591 12.56C146.978 12.1467 147.171 11.54 147.171 10.74V8.80002C147.171 8.01335 146.978 7.41335 146.591 7.00002C146.205 6.58668 145.671 6.38002 144.991 6.38002C144.325 6.38002 143.798 6.58668 143.411 7.00002C143.025 7.41335 142.831 8.01335 142.831 8.80002V10.74C142.831 11.54 143.025 12.1467 143.411 12.56C143.798 12.9734 144.325 13.18 144.991 13.18Z" fill="#30333D"/>
<path d="M152.121 15V4.56002H154.681V6.72002H154.781C154.847 6.44002 154.947 6.17335 155.081 5.92002C155.227 5.65335 155.414 5.42002 155.641 5.22002C155.867 5.02002 156.134 4.86002 156.441 4.74002C156.761 4.62002 157.127 4.56002 157.541 4.56002H158.101V6.98002H157.301C156.434 6.98002 155.781 7.10668 155.341 7.36002C154.901 7.61335 154.681 8.02668 154.681 8.60002V15H152.121Z" fill="#30333D"/>
<path d="M159.972 15V4.56002H162.532V6.30002H162.632C162.832 5.75335 163.152 5.28668 163.592 4.90002C164.032 4.51335 164.646 4.32002 165.432 4.32002C166.152 4.32002 166.772 4.49335 167.292 4.84002C167.812 5.18668 168.199 5.71335 168.452 6.42002H168.492C168.679 5.83335 169.046 5.34002 169.592 4.94002C170.152 4.52668 170.852 4.32002 171.692 4.32002C172.719 4.32002 173.506 4.67335 174.052 5.38002C174.612 6.08668 174.892 7.09335 174.892 8.40002V15H172.332V8.66002C172.332 7.16668 171.772 6.42002 170.652 6.42002C170.399 6.42002 170.152 6.46002 169.912 6.54002C169.686 6.60668 169.479 6.71335 169.292 6.86002C169.119 6.99335 168.979 7.16668 168.872 7.38002C168.766 7.58002 168.712 7.82002 168.712 8.10002V15H166.152V8.66002C166.152 7.16668 165.592 6.42002 164.472 6.42002C164.232 6.42002 163.992 6.46002 163.752 6.54002C163.526 6.60668 163.319 6.71335 163.132 6.86002C162.959 6.99335 162.812 7.16668 162.692 7.38002C162.586 7.58002 162.532 7.82002 162.532 8.10002V15H159.972Z" fill="#30333D"/>
<path d="M185.406 15C184.846 15 184.4 14.84 184.066 14.52C183.746 14.1867 183.546 13.7467 183.466 13.2H183.346C183.173 13.88 182.82 14.3934 182.286 14.74C181.753 15.0734 181.093 15.24 180.306 15.24C179.24 15.24 178.42 14.96 177.846 14.4C177.273 13.84 176.986 13.0934 176.986 12.16C176.986 11.08 177.373 10.28 178.146 9.76002C178.92 9.22668 180.02 8.96002 181.446 8.96002H183.226V8.20002C183.226 7.61335 183.073 7.16002 182.766 6.84002C182.46 6.52002 181.966 6.36002 181.286 6.36002C180.686 6.36002 180.2 6.49335 179.826 6.76002C179.466 7.01335 179.16 7.32002 178.906 7.68002L177.386 6.32002C177.773 5.72002 178.286 5.24002 178.926 4.88002C179.566 4.50668 180.413 4.32002 181.466 4.32002C182.88 4.32002 183.953 4.64002 184.686 5.28002C185.42 5.92002 185.786 6.84002 185.786 8.04002V12.96H186.826V15H185.406ZM181.166 13.38C181.74 13.38 182.226 13.2534 182.626 13C183.026 12.7467 183.226 12.3734 183.226 11.88V10.5H181.586C180.253 10.5 179.586 10.9267 179.586 11.78V12.12C179.586 12.5467 179.72 12.8667 179.986 13.08C180.266 13.28 180.66 13.38 181.166 13.38Z" fill="#30333D"/>
<path d="M192.08 15C191.2 15 190.527 14.7734 190.06 14.32C189.607 13.8534 189.38 13.1934 189.38 12.34V6.60002H187.84V4.56002H188.64C189.027 4.56002 189.287 4.47335 189.42 4.30002C189.567 4.11335 189.64 3.84002 189.64 3.48002V1.70002H191.94V4.56002H194.08V6.60002H191.94V12.96H193.92V15H192.08Z" fill="#30333D"/>
<path d="M197.58 3.04002C197.047 3.04002 196.66 2.92002 196.42 2.68002C196.194 2.44002 196.08 2.13335 196.08 1.76002V1.36002C196.08 0.986684 196.194 0.680017 196.42 0.440017C196.66 0.200017 197.047 0.0800171 197.58 0.0800171C198.1 0.0800171 198.48 0.200017 198.72 0.440017C198.96 0.680017 199.08 0.986684 199.08 1.36002V1.76002C199.08 2.13335 198.96 2.44002 198.72 2.68002C198.48 2.92002 198.1 3.04002 197.58 3.04002ZM196.3 4.56002H198.86V15H196.3V4.56002Z" fill="#30333D"/>
<path d="M205.968 15.24C205.221 15.24 204.548 15.1134 203.948 14.86C203.361 14.6067 202.854 14.24 202.428 13.76C202.014 13.28 201.694 12.7067 201.468 12.04C201.241 11.36 201.128 10.6 201.128 9.76002C201.128 8.92002 201.241 8.16668 201.468 7.50002C201.694 6.83335 202.014 6.26668 202.428 5.80002C202.854 5.32002 203.361 4.95335 203.948 4.70002C204.548 4.44668 205.221 4.32002 205.968 4.32002C206.714 4.32002 207.388 4.44668 207.988 4.70002C208.588 4.95335 209.094 5.32002 209.508 5.80002C209.934 6.26668 210.261 6.83335 210.488 7.50002C210.714 8.16668 210.828 8.92002 210.828 9.76002C210.828 10.6 210.714 11.36 210.488 12.04C210.261 12.7067 209.934 13.28 209.508 13.76C209.094 14.24 208.588 14.6067 207.988 14.86C207.388 15.1134 206.714 15.24 205.968 15.24ZM205.968 13.18C206.648 13.18 207.181 12.9734 207.568 12.56C207.954 12.1467 208.148 11.54 208.148 10.74V8.80002C208.148 8.01335 207.954 7.41335 207.568 7.00002C207.181 6.58668 206.648 6.38002 205.968 6.38002C205.301 6.38002 204.774 6.58668 204.388 7.00002C204.001 7.41335 203.808 8.01335 203.808 8.80002V10.74C203.808 11.54 204.001 12.1467 204.388 12.56C204.774 12.9734 205.301 13.18 205.968 13.18Z" fill="#30333D"/>
<path d="M213.097 15V4.56002H215.657V6.30002H215.757C215.971 5.74002 216.304 5.27335 216.757 4.90002C217.224 4.51335 217.864 4.32002 218.677 4.32002C219.757 4.32002 220.584 4.67335 221.157 5.38002C221.731 6.08668 222.017 7.09335 222.017 8.40002V15H219.457V8.66002C219.457 7.91335 219.324 7.35335 219.057 6.98002C218.791 6.60668 218.351 6.42002 217.737 6.42002C217.471 6.42002 217.211 6.46002 216.957 6.54002C216.717 6.60668 216.497 6.71335 216.297 6.86002C216.111 6.99335 215.957 7.16668 215.837 7.38002C215.717 7.58002 215.657 7.82002 215.657 8.10002V15H213.097Z" fill="#30333D"/>
</svg>
