<svg width="20" height="21" viewBox="0 0 20 21" fill="none" xmlns="http://www.w3.org/2000/svg">
<path fill-rule="evenodd" clip-rule="evenodd" d="M0 5.5C0 2.73858 2.23858 0.5 5 0.5H12C12.5523 0.5 13 0.947715 13 1.5C13 2.05228 12.5523 2.5 12 2.5H5C3.34315 2.5 2 3.84315 2 5.5V15.5C2 17.1569 3.34315 18.5 5 18.5H12C12.5523 18.5 13 18.9477 13 19.5C13 20.0523 12.5523 20.5 12 20.5H5C2.23858 20.5 0 18.2614 0 15.5V5.5Z" fill="#8494F1"/>
<path fill-rule="evenodd" clip-rule="evenodd" d="M19.6917 9.76316C20.1028 10.1742 20.1028 10.8407 19.6917 11.2518L14.4285 16.515L12.9399 15.0263L16.4061 11.5601L8 11.5601L8 9.45485L16.4061 9.45485L12.9399 5.98865L14.4285 4.5L19.6917 9.76316Z" fill="#8494F1"/>
</svg>
